<svg xmlns="http://www.w3.org/2000/svg" width="112" height="28" viewBox="0 0 112 28">
  <g id="kosmos_logo" transform="translate(0 0)">
    <g id="그룹_635953" data-name="그룹 635953" transform="translate(5.001 1.001)">
      <path id="패스_406" data-name="패스 406" d="M527.871,115.775l-3.437-6.192a.284.284,0,0,0-.457-.054l-2.79,3.036a.285.285,0,0,0-.075.192v2.88a.284.284,0,0,1-.284.284h-1.166a.284.284,0,0,1-.284-.284v-11.71a.284.284,0,0,1,.284-.284h1.166a.284.284,0,0,1,.284.284v5.407a.284.284,0,0,0,.493.193l5.332-5.792a.283.283,0,0,1,.209-.092h1.648a.284.284,0,0,1,.208.477l-3.381,3.634a.284.284,0,0,0-.04.333l4.158,7.411a.284.284,0,0,1-.248.423H528.12a.285.285,0,0,1-.248-.146" transform="translate(-519.377 -91.105)" fill="#fff"/>
      <path id="패스_407" data-name="패스 407" d="M656.961,113.588a6.468,6.468,0,1,1,6.455-6.419,6.453,6.453,0,0,1-6.455,6.419m0-11.126a4.591,4.591,0,0,0-4.721,4.723,4.722,4.722,0,0,0,9.442-.115,4.6,4.6,0,0,0-4.721-4.608" transform="translate(-634.657 -88.475)" fill="#fff"/>
      <path id="패스_408" data-name="패스 408" d="M809.767,113.812a7.6,7.6,0,0,1-5.789-2.314.285.285,0,0,1,0-.4l.825-.812a.286.286,0,0,1,.392-.005A6.393,6.393,0,0,0,810.008,112c1.333,0,3.709-.428,3.709-2.2a1.625,1.625,0,0,0-.8-1.4c-.626-.411-1.22-.445-2.987-.477l-1.8-.033c-1.863-.033-3.565-1.037-3.565-3.143a3.92,3.92,0,0,1,2.987-3.506,6.879,6.879,0,0,1,2.071-.312,8.072,8.072,0,0,1,4.758,1.514.285.285,0,0,1,.065.391l-.671.981a.285.285,0,0,1-.386.079,6.042,6.042,0,0,0-3.541-1.138c-1.172,0-3.517.379-3.517,1.975,0,1.2,1.076,1.416,2.024,1.416h1.782a6.277,6.277,0,0,1,3.613.741,3.506,3.506,0,0,1,1.686,3.061c0,2.979-3.324,3.868-5.668,3.868" transform="translate(-769.479 -88.715)" fill="#fff"/>
      <path id="패스_409" data-name="패스 409" d="M965.8,115.638v-7.22a.284.284,0,0,0-.531-.139L961.8,114.47a.284.284,0,0,1-.5,0l-3.364-6.161a.284.284,0,0,0-.533.136v7.195a.284.284,0,0,1-.285.284h-1.134a.283.283,0,0,1-.284-.284v-11.71a.284.284,0,0,1,.284-.284h1.265a.284.284,0,0,1,.25.149l3.8,7.049a.284.284,0,0,0,.5,0l3.938-7.056a.284.284,0,0,1,.248-.146h1.283a.284.284,0,0,1,.284.284v11.71a.283.283,0,0,1-.284.284h-1.183a.284.284,0,0,1-.284-.284" transform="translate(-902.921 -91.106)" fill="#fff"/>
      <path id="패스_410" data-name="패스 410" d="M1120.367,113.588a6.468,6.468,0,1,1,6.455-6.419,6.453,6.453,0,0,1-6.455,6.419m0-11.126a4.591,4.591,0,0,0-4.721,4.723,4.722,4.722,0,0,0,9.442-.115,4.6,4.6,0,0,0-4.721-4.608" transform="translate(-1042.008 -88.475)" fill="#fff"/>
      <path id="패스_411" data-name="패스 411" d="M1275.145,113.812a7.6,7.6,0,0,1-5.789-2.314.285.285,0,0,1,0-.4l.825-.812a.286.286,0,0,1,.392-.005,6.391,6.391,0,0,0,4.811,1.725c1.333,0,3.709-.428,3.709-2.2a1.624,1.624,0,0,0-.8-1.4c-.626-.411-1.22-.445-2.987-.477l-1.8-.033c-1.862-.033-3.565-1.037-3.565-3.143a3.92,3.92,0,0,1,2.987-3.506,6.878,6.878,0,0,1,2.071-.312,8.072,8.072,0,0,1,4.758,1.514.285.285,0,0,1,.065.391l-.671.981a.286.286,0,0,1-.386.079,6.042,6.042,0,0,0-3.541-1.138c-1.173,0-3.517.379-3.517,1.975,0,1.2,1.076,1.416,2.024,1.416h1.782a6.275,6.275,0,0,1,3.613.741,3.505,3.505,0,0,1,1.686,3.061c0,2.979-3.324,3.868-5.669,3.868" transform="translate(-1178.562 -88.715)" fill="#fff"/>
      <path id="패스_412" data-name="패스 412" d="M822.045,5.312h-.8a.075.075,0,0,1-.069-.045L818.962.1a.074.074,0,0,1,.069-.1h.658a.074.074,0,0,1,.068.045l1.824,4.243a.075.075,0,0,0,.137,0L823.555.042A.075.075,0,0,1,823.623,0h.672a.075.075,0,0,1,.069.1l-2.25,5.166a.073.073,0,0,1-.068.045" transform="translate(-782.717 0.003)" fill="#fff"/>
      <path id="패스_413" data-name="패스 413" d="M885.075,5.24V.073A.074.074,0,0,1,885.149,0h.6a.075.075,0,0,1,.075.074V5.24a.075.075,0,0,1-.075.074h-.6a.074.074,0,0,1-.074-.074" transform="translate(-840.839 0.001)" fill="#fff"/>
      <path id="패스_414" data-name="패스 414" d="M919.673,5.24V.073A.074.074,0,0,1,919.747,0h.609a.074.074,0,0,1,.074.074v4.39a.075.075,0,0,0,.075.075h3.007a.074.074,0,0,1,.074.074V5.24a.074.074,0,0,1-.074.074h-3.765a.074.074,0,0,1-.074-.074" transform="translate(-871.252 0.001)" fill="#fff"/>
      <path id="패스_415" data-name="패스 415" d="M973.754,5.24V.073A.074.074,0,0,1,973.828,0h.609a.074.074,0,0,1,.074.074v4.39a.075.075,0,0,0,.075.075h3.007a.074.074,0,0,1,.074.074V5.24a.074.074,0,0,1-.074.074h-3.765a.074.074,0,0,1-.074-.074" transform="translate(-918.791 0.001)" fill="#fff"/>
      <path id="패스_416" data-name="패스 416" d="M1024.786,5.321l-.705-1.641a.074.074,0,0,0-.068-.045h-2.231a.076.076,0,0,0-.068.044l-.732,1.643a.074.074,0,0,1-.068.045h-.657a.075.075,0,0,1-.068-.105L1022.477.1a.074.074,0,0,1,.068-.044h.737a.075.075,0,0,1,.069.045l2.257,5.159a.075.075,0,0,1-.068.1h-.685a.075.075,0,0,1-.068-.045m-1.954-4.169-.706,1.594a.075.075,0,0,0,.068.105h1.412a.075.075,0,0,0,.068-.105l-.706-1.594a.074.074,0,0,0-.136,0" transform="translate(-959.6 -0.049)" fill="#fff"/>
    </g>
    <rect id="사각형_1068" data-name="사각형 1068" width="112" height="28" transform="translate(0 0)" fill="#fff" opacity="0"/>
  </g>
</svg>
