<svg xmlns="http://www.w3.org/2000/svg" xmlns:xlink="http://www.w3.org/1999/xlink" width="38" height="38" viewBox="0 0 38 38">
  <defs>
    <clipPath id="clip-path">
      <rect id="사각형_1073" data-name="사각형 1073" width="38" height="38" transform="translate(54 10)" fill="#fff" stroke="#707070" stroke-width="1"/>
    </clipPath>
  </defs>
  <g id="symbol" transform="translate(-54 -10)" clip-path="url(#clip-path)">
    <path id="패스_85005" data-name="패스 85005" d="M112.689,18.945a2.042,2.042,0,0,1,0-1.137,11.184,11.184,0,0,0-1.166-8.623,11.194,11.194,0,0,0-6.894-5.321,2.022,2.022,0,0,1-.976-.565A11.148,11.148,0,0,0,95.594,0h0A11.145,11.145,0,0,0,87.54,3.295a2.023,2.023,0,0,1-.981.567A11.158,11.158,0,0,0,79.664,9.2,11.141,11.141,0,0,0,78.5,17.823a2.04,2.04,0,0,1,0,1.137A11.462,11.462,0,0,0,86.564,32.9a2.018,2.018,0,0,1,.976.566,11.132,11.132,0,0,0,8.051,3.3h0a11.139,11.139,0,0,0,8.053-3.3,2.023,2.023,0,0,1,.981-.567,11.166,11.166,0,0,0,6.9-5.34,11.141,11.141,0,0,0,1.162-8.624M87.239,4.878a1.323,1.323,0,0,1,.869-.5A10.678,10.678,0,0,1,94.721,5.7a.128.128,0,0,1,.064.1.138.138,0,0,1-.052.118,11.4,11.4,0,0,0-3.524,4.695.134.134,0,0,1-.142.082,11.472,11.472,0,0,0-5.827.7.137.137,0,0,1-.128-.013.128.128,0,0,1-.058-.107,10.492,10.492,0,0,1,2.185-6.4m13.587,15.444a5.524,5.524,0,0,0,0-3.868l-.006-.023a.045.045,0,0,1,.016-.05.041.041,0,0,1,.048,0,13.624,13.624,0,0,1,2.3,1.759.342.342,0,0,1,0,.5,13.7,13.7,0,0,1-2.3,1.761.04.04,0,0,1-.048,0,.044.044,0,0,1-.015-.05ZM95.594,23.1a4.717,4.717,0,1,1,4.717-4.717A4.722,4.722,0,0,1,95.594,23.1m4.358-8.251a.045.045,0,0,1-.05-.011l-.016-.016a5.525,5.525,0,0,0-3.347-1.934l-.025-.007a.045.045,0,0,1-.035-.038A.041.041,0,0,1,96.5,12.8a13.627,13.627,0,0,1,2.674-1.113.342.342,0,0,1,.1-.015.343.343,0,0,1,.332.262,13.709,13.709,0,0,1,.374,2.874.041.041,0,0,1-.026.04m-5.275-1.968-.022.006a5.522,5.522,0,0,0-3.349,1.932l-.018.018a.045.045,0,0,1-.051.011.041.041,0,0,1-.026-.04,13.635,13.635,0,0,1,.373-2.873.339.339,0,0,1,.429-.248A13.681,13.681,0,0,1,94.692,12.8a.041.041,0,0,1,.022.042.045.045,0,0,1-.035.038m-3.09,11.951a13.666,13.666,0,0,1-.374-2.874.041.041,0,0,1,.026-.04.052.052,0,0,1,.017,0,.046.046,0,0,1,.034.015l.016.016a5.524,5.524,0,0,0,3.348,1.934l.024.006a.045.045,0,0,1,.035.038.04.04,0,0,1-.022.042,13.633,13.633,0,0,1-2.675,1.114.338.338,0,0,1-.268-.032h0a.334.334,0,0,1-.161-.216m4.926-.947.023-.006a5.524,5.524,0,0,0,3.349-1.932l.017-.017a.046.046,0,0,1,.051-.011.041.041,0,0,1,.026.04,13.626,13.626,0,0,1-.373,2.873.342.342,0,0,1-.429.248A13.634,13.634,0,0,1,96.5,23.97a.041.041,0,0,1-.022-.042.046.046,0,0,1,.035-.038m-6.141-3.546a.046.046,0,0,1-.015.05.041.041,0,0,1-.048,0,13.616,13.616,0,0,1-2.3-1.759.339.339,0,0,1-.107-.248.335.335,0,0,1,.106-.248,13.675,13.675,0,0,1,2.3-1.761.042.042,0,0,1,.022-.007.043.043,0,0,1,.026.009.046.046,0,0,1,.016.049l-.006.022a5.523,5.523,0,0,0,0,3.868Zm13.541-2.7a.224.224,0,0,1-.175-.068,11.4,11.4,0,0,0-2.473-1.924l0,0a.923.923,0,0,1-.458-.8,11.209,11.209,0,0,0-.437-3.115.228.228,0,0,1,.029-.19.21.21,0,0,1,.153-.094,10.264,10.264,0,0,1,1.166-.066,10.623,10.623,0,0,1,3.771.7.824.824,0,0,1,.518.9,10.464,10.464,0,0,1-1.925,4.578.223.223,0,0,1-.164.09m-4.794-7.022a.222.222,0,0,1-.15.306,11.37,11.37,0,0,0-2.926,1.192.907.907,0,0,1-.908,0,11.267,11.267,0,0,0-2.912-1.185.223.223,0,0,1-.15-.306,10.637,10.637,0,0,1,3.014-3.957.823.823,0,0,1,1.036,0,10.563,10.563,0,0,1,3,3.952M85.707,12.074a10.668,10.668,0,0,1,3.774-.691,10.03,10.03,0,0,1,1.154.066.223.223,0,0,1,.189.283,11.306,11.306,0,0,0-.434,3.109v.015a.923.923,0,0,1-.465.8,11.281,11.281,0,0,0-2.47,1.922.219.219,0,0,1-.175.068.223.223,0,0,1-.165-.09,10.489,10.489,0,0,1-1.925-4.6.812.812,0,0,1,.518-.877m1.569,7.047a.212.212,0,0,1,.169.065,11.547,11.547,0,0,0,2.486,1.936.912.912,0,0,1,.456.789,11.207,11.207,0,0,0,.436,3.128.228.228,0,0,1-.029.189.211.211,0,0,1-.153.094,10.707,10.707,0,0,1-4.937-.628.826.826,0,0,1-.517-.9,10.453,10.453,0,0,1,1.277-3.6,10.587,10.587,0,0,1,.644-.984.226.226,0,0,1,.167-.092m4.795,7.03a.223.223,0,0,1,.15-.306,11.38,11.38,0,0,0,2.909-1.182l.012-.007a.925.925,0,0,1,.923,0,11.264,11.264,0,0,0,2.9,1.179.223.223,0,0,1,.15.307A10.64,10.64,0,0,1,96.1,30.1a.823.823,0,0,1-1.036,0,10.574,10.574,0,0,1-3-3.952m13.419-1.46a10.615,10.615,0,0,1-4.935.628.223.223,0,0,1-.189-.284,11.317,11.317,0,0,0,.434-3.115.923.923,0,0,1,.465-.8,11.192,11.192,0,0,0,2.479-1.935.217.217,0,0,1,.176-.069.223.223,0,0,1,.165.091A10.7,10.7,0,0,1,106,23.8a.823.823,0,0,1-.515.9m.588-13.307a.138.138,0,0,1-.128.014,11.482,11.482,0,0,0-4.248-.815,10.874,10.874,0,0,0-1.575.113.131.131,0,0,1-.142-.082A11.439,11.439,0,0,0,96.468,5.92a.137.137,0,0,1-.053-.117.127.127,0,0,1,.063-.1,10.692,10.692,0,0,1,6.61-1.315,1.326,1.326,0,0,1,.867.5,10.543,10.543,0,0,1,2.178,6.392.127.127,0,0,1-.057.107m-3.6-7.953a.127.127,0,0,1-.132.084,11.419,11.419,0,0,0-6.67,1.745.13.13,0,0,1-.141,0,11.512,11.512,0,0,0-6.1-1.764q-.289,0-.575.016a.14.14,0,0,1-.132-.085.129.129,0,0,1,.037-.15,10.6,10.6,0,0,1,1.729-1.2,10.593,10.593,0,0,1,11.948,1.207.128.128,0,0,1,.035.149M84.292,23.97a.127.127,0,0,1-.122,0,10.651,10.651,0,0,1-4.447-5.074,1.326,1.326,0,0,1,0-1.012,10.65,10.65,0,0,1,4.447-5.072.128.128,0,0,1,.122,0,.136.136,0,0,1,.076.1,11.225,11.225,0,0,0,1.281,3.839h0A11.393,11.393,0,0,0,86.675,18.3a.131.131,0,0,1,0,.163,11.468,11.468,0,0,0-2.308,5.4.136.136,0,0,1-.075.1M86.1,5.1a11.437,11.437,0,0,0-1.835,6.667.13.13,0,0,1-.07.122,11.492,11.492,0,0,0-4.851,4.924.132.132,0,0,1-.139.072.129.129,0,0,1-.112-.107,10.447,10.447,0,0,1,.184-4.665h0A10.571,10.571,0,0,1,85.944,4.9a.14.14,0,0,1,.046-.008.131.131,0,0,1,.1.051A.132.132,0,0,1,86.1,5.1m-7,14.909A.129.129,0,0,1,79.2,19.9a.131.131,0,0,1,.139.072A11.341,11.341,0,0,0,84.2,24.89a.131.131,0,0,1,.071.122A11.5,11.5,0,0,0,86.1,31.666a.131.131,0,0,1-.007.157.129.129,0,0,1-.147.043,10.53,10.53,0,0,1-6.854-11.858m6.019,5.375a.136.136,0,0,1,.077-.024.139.139,0,0,1,.051.01,11.311,11.311,0,0,0,5.824.7.134.134,0,0,1,.142.082,11.442,11.442,0,0,0,3.515,4.693.138.138,0,0,1,.053.117.127.127,0,0,1-.064.1,10.693,10.693,0,0,1-6.615,1.314,1.325,1.325,0,0,1-.871-.507,10.649,10.649,0,0,1-2.169-6.385.128.128,0,0,1,.057-.108m3.6,7.954a.132.132,0,0,1,.124-.084h.009a11.414,11.414,0,0,0,6.672-1.745.13.13,0,0,1,.141,0,11.532,11.532,0,0,0,6.689,1.75.136.136,0,0,1,.133.085.129.129,0,0,1-.037.15h0a10.559,10.559,0,0,1-13.694-.006.129.129,0,0,1-.036-.149M96.4,30.963a.136.136,0,0,1,.052-.118,11.405,11.405,0,0,0,3.524-4.695.132.132,0,0,1,.122-.083h.019a11.458,11.458,0,0,0,5.833-.7.137.137,0,0,1,.128.013.128.128,0,0,1,.058.107,10.646,10.646,0,0,1-2.18,6.4,1.324,1.324,0,0,1-.87.5,10.678,10.678,0,0,1-6.624-1.322.128.128,0,0,1-.064-.1M106.9,12.8a.129.129,0,0,1,.122,0,10.649,10.649,0,0,1,4.447,5.075,1.324,1.324,0,0,1,0,1.012,10.648,10.648,0,0,1-4.444,5.071.127.127,0,0,1-.122,0,.137.137,0,0,1-.076-.1,11.423,11.423,0,0,0-2.3-5.394.131.131,0,0,1,0-.163,11.379,11.379,0,0,0,2.3-5.4.137.137,0,0,1,.075-.1m5.2,3.963a.129.129,0,0,1-.111.106.13.13,0,0,1-.139-.072A11.342,11.342,0,0,0,107,11.881a.13.13,0,0,1-.071-.122A11.3,11.3,0,0,0,105.09,5.1a.132.132,0,0,1,.007-.157.131.131,0,0,1,.1-.051.135.135,0,0,1,.046.008A10.528,10.528,0,0,1,112.1,16.761m-7,14.908A11.339,11.339,0,0,0,106.928,25a.131.131,0,0,1,.07-.123,11.49,11.49,0,0,0,4.85-4.923.131.131,0,0,1,.12-.074l.02,0a.129.129,0,0,1,.112.107,10.445,10.445,0,0,1-.184,4.665h0a10.572,10.572,0,0,1-6.666,7.213.13.13,0,0,1-.148-.043.132.132,0,0,1-.007-.157" transform="translate(-22.51 10.336)" fill="#fff"/>
  </g>
</svg>
