<svg xmlns="http://www.w3.org/2000/svg" xmlns:xlink="http://www.w3.org/1999/xlink" width="172" height="48" viewBox="0 0 172 48">
  <defs>
    <clipPath id="clip-path">
      <rect id="사각형_49" data-name="사각형 49" width="172" height="48"/>
    </clipPath>
  </defs>
  <g id="main_logo" clip-path="url(#clip-path)">
    <path id="패스_285" data-name="패스 285" d="M14.288,248.227,8.506,237.577a.472.472,0,0,0-.769-.094L3.043,242.7a.5.5,0,0,0-.126.331v4.954a.483.483,0,0,1-.477.489H.477A.483.483,0,0,1,0,247.99V227.847a.483.483,0,0,1,.477-.488H2.44a.483.483,0,0,1,.477.488v9.3a.477.477,0,0,0,.829.331l8.969-9.963a.473.473,0,0,1,.351-.157h2.772a.49.49,0,0,1,.35.821l-5.687,6.25a.5.5,0,0,0-.067.572l6.994,12.749a.489.489,0,0,1-.416.728H14.706a.477.477,0,0,1-.418-.251" transform="translate(0 -226.754)"/>
    <path id="패스_286" data-name="패스 286" d="M122.408,248.45a12.65,12.65,0,0,1-9.738-3.98.5.5,0,0,1,0-.7l1.388-1.4a.471.471,0,0,1,.658-.008,10.615,10.615,0,0,0,8.093,2.967c2.242,0,6.24-.736,6.24-3.793a2.81,2.81,0,0,0-1.351-2.406c-1.054-.708-2.053-.764-5.025-.821l-3.026-.057c-3.133-.056-6-1.783-6-5.407,0-3.086,2.458-5.153,5.024-6.03a11.342,11.342,0,0,1,3.485-.538,13.374,13.374,0,0,1,8,2.6.5.5,0,0,1,.11.672l-1.129,1.687a.475.475,0,0,1-.65.136,10,10,0,0,0-5.958-1.958c-1.971,0-5.915.651-5.915,3.4,0,2.067,1.809,2.435,3.4,2.435h3c2.242,0,4.079.028,6.077,1.274a6.062,6.062,0,0,1,2.836,5.266c0,5.124-5.592,6.653-9.535,6.653" transform="translate(-54.637 -226.244)"/>
    <path id="패스_287" data-name="패스 287" d="M189.561,247.99V235.569a.476.476,0,0,0-.894-.239l-5.842,10.651a.473.473,0,0,1-.836,0l-5.659-10.6a.476.476,0,0,0-.9.234V247.99a.483.483,0,0,1-.478.488h-1.908a.483.483,0,0,1-.477-.488V227.847a.483.483,0,0,1,.477-.489h2.128a.477.477,0,0,1,.42.257l6.394,12.125a.473.473,0,0,0,.838.006l6.624-12.137a.477.477,0,0,1,.417-.25h2.159a.483.483,0,0,1,.477.489V247.99a.483.483,0,0,1-.477.488h-1.989a.483.483,0,0,1-.477-.488" transform="translate(-83.788 -226.753)"/>
    <path id="패스_288" data-name="패스 288" d="M306.469,248.45a12.65,12.65,0,0,1-9.738-3.98.5.5,0,0,1,0-.7l1.388-1.4a.471.471,0,0,1,.658-.008,10.613,10.613,0,0,0,8.093,2.967c2.241,0,6.239-.736,6.239-3.793a2.809,2.809,0,0,0-1.35-2.406c-1.053-.708-2.053-.764-5.024-.821l-3.025-.057c-3.134-.056-6-1.783-6-5.407,0-3.086,2.458-5.153,5.024-6.03a11.345,11.345,0,0,1,3.485-.538,13.372,13.372,0,0,1,8,2.6.5.5,0,0,1,.11.672l-1.129,1.687a.475.475,0,0,1-.649.136,10.008,10.008,0,0,0-5.958-1.958c-1.972,0-5.916.651-5.916,3.4,0,2.067,1.811,2.435,3.4,2.435h3c2.241,0,4.078.028,6.077,1.274A6.063,6.063,0,0,1,316,241.8c0,5.124-5.591,6.653-9.535,6.653" transform="translate(-144.004 -226.244)"/>
    <path id="패스_289" data-name="패스 289" d="M245.943,226.209a11.129,11.129,0,1,0,10.88,11.126,11.005,11.005,0,0,0-10.88-11.126m0,19.251a8.126,8.126,0,1,1,7.944-8.124,8.036,8.036,0,0,1-7.944,8.124" transform="translate(-114.13 -226.209)"/>
    <path id="패스_290" data-name="패스 290" d="M62.634,226.209a11.129,11.129,0,1,0,10.88,11.126,11.005,11.005,0,0,0-10.88-11.126m0,19.251a8.126,8.126,0,1,1,7.944-8.124,8.036,8.036,0,0,1-7.944,8.124" transform="translate(-25.128 -226.209)"/>
    <path id="패스_292" data-name="패스 292" d="M48.433,307.634a4.525,4.525,0,0,1-3.6,1.426c-2.39,0-4.051-1.165-4.051-3.827v-5.48h1.71v5.48c0,1.844,1.129,2,2.59,2a3.453,3.453,0,0,0,1.661-.4c.482-.278.648-.626.648-1.6v-5.48H49.08v5.48a3.511,3.511,0,0,1-.648,2.4" transform="translate(-19.799 -261.06)"/>
    <path id="패스_293" data-name="패스 293" d="M72.915,308.764v-9.011h1.776v7.167h4.9v1.844Z" transform="translate(-35.402 -261.06)"/>
    <path id="패스_294" data-name="패스 294" d="M97.889,308.764v-9.011h1.776v7.167h4.9v1.844Z" transform="translate(-47.528 -261.06)"/>
    <path id="패스_295" data-name="패스 295" d="M123.087,308.764v-9.011h7.6v1.809H124.78v1.652h5.926v1.792H124.78v1.948h6.11v1.809Z" transform="translate(-59.762 -261.06)"/>
    <path id="패스_296" data-name="패스 296" d="M159.07,307.634a4.526,4.526,0,0,1-3.6,1.426c-2.39,0-4.051-1.165-4.051-3.827v-5.48h1.71v5.48c0,1.844,1.129,2,2.59,2a3.453,3.453,0,0,0,1.661-.4c.482-.278.648-.626.648-1.6v-5.48h1.693v5.48a3.511,3.511,0,0,1-.648,2.4" transform="translate(-73.517 -261.06)"/>
    <path id="패스_297" data-name="패스 297" d="M190.2,308.764l-4.781-6.106v6.106h-1.71v-9.011h1.71l4.781,6.089v-6.089h1.71v9.011Z" transform="translate(-89.198 -261.06)"/>
    <path id="패스_298" data-name="패스 298" d="M218.351,308.794c-2.723,0-5.214-1.722-5.214-4.8,0-3.045,2.474-4.8,5.181-4.8a7.43,7.43,0,0,1,4.051,1.148l-1.013,1.809a5.144,5.144,0,0,0-3.121-1.131,3.066,3.066,0,0,0-3.354,2.957,3,3,0,0,0,3.27,2.975,4.444,4.444,0,0,0,2.624-.818v-1.078h-2.109v-1.687h3.869v3.792a5.84,5.84,0,0,1-4.184,1.635" transform="translate(-103.485 -260.794)"/>
    <path id="패스_299" data-name="패스 299" d="M250.23,308.764h-4.665v-9.011h4.665c2.607,0,4.35,1.548,4.35,4.436,0,2.8-1.726,4.575-4.35,4.575m0-7.2h-2.872v5.393h2.872a2.443,2.443,0,0,0,2.607-2.731,2.375,2.375,0,0,0-2.607-2.662" transform="translate(-119.229 -261.06)"/>
    <path id="패스_300" data-name="패스 300" d="M280.028,308.794c-2.707,0-5.264-1.792-5.264-4.836s2.607-4.767,5.279-4.767c2.707,0,5.3,1.6,5.3,4.715,0,3.061-2.59,4.888-5.313,4.888m.033-7.759c-1.727,0-3.553.9-3.553,2.957,0,2.036,1.86,2.957,3.57,2.957a3.255,3.255,0,0,0,3.519-3.027c0-2.018-1.859-2.888-3.536-2.888" transform="translate(-133.406 -260.794)"/>
  </g>
</svg>
