<svg xmlns="http://www.w3.org/2000/svg" width="112" height="28" viewBox="0 0 112 28">
  <g id="sommet_logo" transform="translate(0 1)">
    <path id="패스_459" data-name="패스 459" d="M303.927,5.691h-.855A.08.08,0,0,1,303,5.643L300.625.111A.08.08,0,0,1,300.7,0h.7a.079.079,0,0,1,.073.048l1.953,4.543a.08.08,0,0,0,.146,0L305.544.048A.08.08,0,0,1,305.617,0h.719a.08.08,0,0,1,.073.112L304,5.643a.079.079,0,0,1-.073.048" transform="translate(-261.498)" fill="#fff"/>
    <path id="패스_460" data-name="패스 460" d="M366.738,5.613V.082a.08.08,0,0,1,.08-.08h.637a.08.08,0,0,1,.08.08V5.613a.08.08,0,0,1-.08.08h-.637a.08.08,0,0,1-.08-.08" transform="translate(-319.055 -0.002)" fill="#fff"/>
    <path id="패스_461" data-name="패스 461" d="M401.336,5.613V.082a.079.079,0,0,1,.08-.08h.652a.08.08,0,0,1,.08.08v4.7a.08.08,0,0,0,.08.08h3.22a.079.079,0,0,1,.079.08v.672a.08.08,0,0,1-.079.08h-4.032a.08.08,0,0,1-.08-.08" transform="translate(-349.17 -0.002)" fill="#fff"/>
    <path id="패스_462" data-name="패스 462" d="M455.417,5.613V.082A.079.079,0,0,1,455.5,0h.652a.079.079,0,0,1,.079.08v4.7a.08.08,0,0,0,.08.08h3.22a.079.079,0,0,1,.08.08v.672a.08.08,0,0,1-.08.08H455.5a.08.08,0,0,1-.079-.08" transform="translate(-396.248 -0.002)" fill="#fff"/>
    <path id="패스_463" data-name="패스 463" d="M506.774,5.7l-.755-1.757a.08.08,0,0,0-.074-.048h-2.389a.081.081,0,0,0-.073.047L502.7,5.7a.079.079,0,0,1-.073.048h-.7a.08.08,0,0,1-.073-.113L504.3.109a.08.08,0,0,1,.073-.047h.789a.081.081,0,0,1,.073.048l2.416,5.524a.08.08,0,0,1-.073.112h-.733a.081.081,0,0,1-.074-.049m-2.092-4.463-.756,1.706a.08.08,0,0,0,.073.112h1.512a.08.08,0,0,0,.073-.112l-.756-1.706a.08.08,0,0,0-.146,0" transform="translate(-436.658 -0.055)" fill="#fff"/>
    <path id="패스_464" data-name="패스 464" d="M6.32,114.656A8.129,8.129,0,0,1,.051,112.1a.179.179,0,0,1,0-.252l1.055-1.038a.178.178,0,0,1,.246,0,6.834,6.834,0,0,0,5.222,1.92c1.423,0,3.959-.457,3.959-2.354a1.734,1.734,0,0,0-.857-1.493c-.668-.439-1.3-.474-3.188-.509l-1.92-.036C2.583,108.3.766,107.226.766,104.978a4.184,4.184,0,0,1,3.188-3.742,7.339,7.339,0,0,1,2.211-.334,8.609,8.609,0,0,1,5.177,1.689.179.179,0,0,1,.04.244l-.853,1.246a.179.179,0,0,1-.242.05,6.559,6.559,0,0,0-3.882-1.279c-1.251,0-3.753.4-3.753,2.108,0,1.282,1.148,1.51,2.16,1.51h1.9a6.7,6.7,0,0,1,3.856.791,3.741,3.741,0,0,1,1.8,3.267c0,3.179-3.548,4.128-6.05,4.128" transform="translate(0.182 -87.834)" fill="#fff"/>
    <path id="패스_465" data-name="패스 465" d="M149.879,114.439a6.9,6.9,0,1,1,6.89-6.851,6.887,6.887,0,0,1-6.89,6.851m0-11.874a4.9,4.9,0,0,0-5.039,5.041,5.04,5.04,0,0,0,10.078-.123,4.912,4.912,0,0,0-5.039-4.918" transform="translate(-124.301 -87.598)" fill="#fff"/>
    <path id="패스_466" data-name="패스 466" d="M319.459,116.542v-8.31a.178.178,0,0,0-.333-.087l-4.051,7.223a.178.178,0,0,1-.312,0l-3.934-7.2a.178.178,0,0,0-.334.085v8.294a.179.179,0,0,1-.178.178h-1.461a.179.179,0,0,1-.178-.178V103.794a.178.178,0,0,1,.178-.178h1.55a.18.18,0,0,1,.157.093l4.2,7.789a.178.178,0,0,0,.312,0l4.35-7.793a.178.178,0,0,1,.155-.091h1.568a.178.178,0,0,1,.178.178v12.748a.179.179,0,0,1-.178.178h-1.512a.178.178,0,0,1-.178-.178" transform="translate(-268.514 -90.195)" fill="#fff"/>
    <path id="패스_467" data-name="패스 467" d="M483.147,116.542v-8.31a.178.178,0,0,0-.333-.087l-4.051,7.223a.178.178,0,0,1-.312,0l-3.934-7.2a.178.178,0,0,0-.334.085v8.294a.179.179,0,0,1-.178.178h-1.46a.179.179,0,0,1-.178-.178V103.794a.178.178,0,0,1,.178-.178h1.549a.18.18,0,0,1,.157.093l4.2,7.789a.178.178,0,0,0,.312,0l4.35-7.793a.178.178,0,0,1,.155-.091h1.568a.178.178,0,0,1,.178.178v12.748a.179.179,0,0,1-.178.178h-1.512a.178.178,0,0,1-.178-.178" transform="translate(-411 -90.195)" fill="#fff"/>
    <path id="패스_468" data-name="패스 468" d="M636.186,116.542V103.794a.178.178,0,0,1,.178-.178h10.168a.178.178,0,0,1,.178.178v1.576a.178.178,0,0,1-.178.178h-8.3a.178.178,0,0,0-.178.178v3.07a.178.178,0,0,0,.178.178h8.333a.178.178,0,0,1,.178.178v1.54a.178.178,0,0,1-.178.178h-8.333a.178.178,0,0,0-.178.178v3.578a.178.178,0,0,0,.178.178h8.625a.178.178,0,0,1,.178.178v1.559a.178.178,0,0,1-.178.178H636.364a.178.178,0,0,1-.178-.178" transform="translate(-553.602 -90.195)" fill="#fff"/>
    <path id="패스_469" data-name="패스 469" d="M769.725,105.71v10.833a.178.178,0,0,1-.178.178h-1.461a.178.178,0,0,1-.178-.178V105.71a.178.178,0,0,0-.178-.178h-4.2a.179.179,0,0,1-.178-.178v-1.559a.178.178,0,0,1,.178-.178h10.527a.178.178,0,0,1,.178.178v1.559a.179.179,0,0,1-.178.178H769.9a.178.178,0,0,0-.178.178" transform="translate(-664.293 -90.195)" fill="#fff"/>
    <rect id="사각형_1070" data-name="사각형 1070" width="112" height="28" transform="translate(0 -1)" fill="#fff" opacity="0"/>
  </g>
</svg>
