<svg xmlns="http://www.w3.org/2000/svg" xmlns:xlink="http://www.w3.org/1999/xlink" width="110" height="28" viewBox="0 0 110 28">
  <defs>
    <clipPath id="clip-path">
      <rect id="사각형_734" data-name="사각형 734" width="84.556" height="26.605" fill="#fff"/>
    </clipPath>
  </defs>
  <g id="terre_logo" transform="translate(-1.24)">
    <g id="그룹_208" data-name="그룹 208" transform="translate(12.059 0.886)" clip-path="url(#clip-path)">
      <path id="패스_449" data-name="패스 449" d="M205.069,5.72h-.859a.081.081,0,0,1-.074-.049L201.751.112A.08.08,0,0,1,201.825,0h.708a.079.079,0,0,1,.073.049l1.963,4.565a.08.08,0,0,0,.147,0L206.694.049A.081.081,0,0,1,206.767,0h.723a.08.08,0,0,1,.074.113l-2.421,5.558a.079.079,0,0,1-.073.049" transform="translate(-175.485 0)" fill="#fff"/>
      <path id="패스_450" data-name="패스 450" d="M267.864,5.641V.082a.08.08,0,0,1,.08-.08h.64a.08.08,0,0,1,.081.08V5.641a.081.081,0,0,1-.081.081h-.64a.08.08,0,0,1-.08-.081" transform="translate(-232.999 -0.002)" fill="#fff"/>
      <path id="패스_451" data-name="패스 451" d="M302.462,5.641V.082a.08.08,0,0,1,.08-.08h.655a.08.08,0,0,1,.08.08V4.805a.081.081,0,0,0,.081.08h3.236a.08.08,0,0,1,.08.08v.675a.08.08,0,0,1-.08.081h-4.051a.08.08,0,0,1-.08-.081" transform="translate(-263.094 -0.002)" fill="#fff"/>
      <path id="패스_452" data-name="패스 452" d="M356.544,5.641V.082a.08.08,0,0,1,.08-.08h.655a.08.08,0,0,1,.08.08V4.805a.081.081,0,0,0,.081.08h3.235a.08.08,0,0,1,.08.08v.675a.08.08,0,0,1-.08.081h-4.052a.081.081,0,0,1-.08-.081" transform="translate(-310.136 -0.002)" fill="#fff"/>
      <path id="패스_453" data-name="패스 453" d="M407.925,5.725l-.759-1.766a.08.08,0,0,0-.074-.048h-2.4a.081.081,0,0,0-.073.047l-.788,1.768a.08.08,0,0,1-.073.048h-.707a.081.081,0,0,1-.073-.113L405.441.109a.08.08,0,0,1,.073-.047h.793a.081.081,0,0,1,.074.048l2.428,5.551a.08.08,0,0,1-.074.113H408a.081.081,0,0,1-.074-.049m-2.1-4.486-.759,1.715a.081.081,0,0,0,.073.113h1.519a.08.08,0,0,0,.073-.113l-.76-1.715a.08.08,0,0,0-.147,0" transform="translate(-350.519 -0.054)" fill="#fff"/>
      <path id="패스_454" data-name="패스 454" d="M6.4,105.414v10.867a.185.185,0,0,1-.185.185H4.763a.185.185,0,0,1-.185-.185V105.414a.185.185,0,0,0-.185-.185H.185A.185.185,0,0,1,0,105.045v-1.553a.185.185,0,0,1,.185-.185H10.744a.184.184,0,0,1,.185.185v1.553a.184.184,0,0,1-.185.185H6.587a.185.185,0,0,0-.185.185" transform="translate(0 -89.861)" fill="#fff"/>
      <path id="패스_455" data-name="패스 455" d="M138.839,116.28V103.491a.184.184,0,0,1,.185-.185h10.2a.185.185,0,0,1,.185.185v1.571a.185.185,0,0,1-.185.185H140.9a.185.185,0,0,0-.185.185v3.07a.185.185,0,0,0,.185.185h8.31a.185.185,0,0,1,.185.185v1.535a.184.184,0,0,1-.185.185H140.9a.185.185,0,0,0-.185.185v3.582a.185.185,0,0,0,.185.185h8.649a.185.185,0,0,1,.185.184v1.553a.185.185,0,0,1-.185.185H139.024a.185.185,0,0,1-.185-.185" transform="translate(-120.768 -89.86)" fill="#fff"/>
      <path id="패스_456" data-name="패스 456" d="M286.2,111.144l2.443,5.055a.185.185,0,0,1-.166.265h-1.706a.184.184,0,0,1-.167-.106l-2.482-5.239a.186.186,0,0,0-.167-.105h-4.483a.185.185,0,0,0-.185.185v5.081a.185.185,0,0,1-.185.185h-1.507a.185.185,0,0,1-.185-.185V103.491a.185.185,0,0,1,.185-.185h7.423a3.7,3.7,0,0,1,4.045,3.881,3.592,3.592,0,0,1-2.752,3.7.184.184,0,0,0-.112.257m-1.181-5.933h-5.546a.184.184,0,0,0-.185.185v3.511a.185.185,0,0,0,.185.185h5.546a1.912,1.912,0,0,0,2.186-2.011c0-1.376-.964-1.87-2.186-1.87" transform="translate(-241.302 -89.86)" fill="#fff"/>
      <path id="패스_457" data-name="패스 457" d="M430.193,111.144l2.443,5.055a.185.185,0,0,1-.166.265h-1.706a.184.184,0,0,1-.167-.106l-2.481-5.239a.186.186,0,0,0-.167-.105h-4.483a.185.185,0,0,0-.185.185v5.081a.185.185,0,0,1-.185.185h-1.507a.185.185,0,0,1-.185-.185V103.491a.185.185,0,0,1,.185-.185h7.423a3.7,3.7,0,0,1,4.045,3.881,3.591,3.591,0,0,1-2.752,3.7.184.184,0,0,0-.112.257m-1.181-5.933h-5.546a.184.184,0,0,0-.185.185v3.511a.185.185,0,0,0,.185.185h5.546a1.911,1.911,0,0,0,2.186-2.011c0-1.376-.964-1.87-2.186-1.87" transform="translate(-366.554 -89.86)" fill="#fff"/>
      <path id="패스_458" data-name="패스 458" d="M565.93,116.28V103.491a.184.184,0,0,1,.185-.185h10.2a.185.185,0,0,1,.185.185v1.571a.185.185,0,0,1-.185.185h-8.322a.185.185,0,0,0-.185.185v3.07a.185.185,0,0,0,.185.185h8.31a.185.185,0,0,1,.185.185v1.535a.185.185,0,0,1-.185.185h-8.31a.185.185,0,0,0-.185.185v3.582a.185.185,0,0,0,.185.185h8.649a.185.185,0,0,1,.185.184v1.553a.185.185,0,0,1-.185.185H566.115a.185.185,0,0,1-.185-.185" transform="translate(-492.269 -89.86)" fill="#fff"/>
    </g>
    <rect id="사각형_1069" data-name="사각형 1069" width="110" height="28" transform="translate(1.24 0)" fill="#fff" opacity="0"/>
  </g>
</svg>
